<?xml version="1.0" encoding="utf-8"?>
<!-- Generator: Adobe Illustrator 16.0.0, SVG Export Plug-In . SVG Version: 6.00 Build 0)  -->
<!DOCTYPE svg PUBLIC "-//W3C//DTD SVG 1.1//EN" "http://www.w3.org/Graphics/SVG/1.1/DTD/svg11.dtd">
<svg version="1.1" id="Layer_1" xmlns="http://www.w3.org/2000/svg" xmlns:xlink="http://www.w3.org/1999/xlink" x="0px" y="0px"
	 width="802px" height="918.75px" viewBox="0 0 802 918.75" enable-background="new 0 0 802 918.75" xml:space="preserve">
<g>
	<polygon fill-rule="evenodd" clip-rule="evenodd" points="601.723,54.411 590.574,54.728 590.146,47.953 588.758,41.767 
		585.667,36.167 581.185,31.258 575.639,27.576 569.449,25.551 566.192,25.23 562.779,25.39 559.738,26.19 554.192,28.164 
		548.749,31.579 544.165,34.512 540.27,36.964 535.309,39.155 532.266,32.485 543.791,24.483 549.229,20.911 555.098,18.134 
		562.355,15.789 569.77,15.094 574.679,15.522 581.77,16.908 588.119,19.841 593.667,24.324 598.149,29.709 600.602,34.831 
		601.989,40.541 603.429,54.302 583.799,25.551 586.092,26.616 588.919,28.323 592.016,30.99 594.575,33.125 594.788,32.485 
		594.309,31.738 593.398,30.03 590.895,26.775 588.119,24.163 584.6,21.711 580.223,19.202 580.223,24.163 575.317,22.618 
		575.317,18.294 566.673,18.294 562.193,18.881 558.193,19.841 554.192,21.227 550.14,22.934 547.043,24.483 543.95,26.511 
		543.47,27.257 543.364,27.576 543.364,28.964 543.95,30.03 545.018,30.509 549.977,27.417 553.819,25.551 557.872,24.003 
		562.193,23.203 566.673,22.618 575.317,22.618 580.223,24.163 583.799,25.551 603.429,54.302 	"/>
	<polyline fill="none" stroke="#000000" stroke-width="0.3957" stroke-linecap="round" stroke-linejoin="round" points="
		601.723,54.411 590.574,54.728 590.146,47.953 588.758,41.767 585.667,36.167 581.185,31.258 575.639,27.576 569.449,25.551 
		566.192,25.23 562.779,25.39 559.738,26.19 554.192,28.164 548.749,31.579 544.165,34.512 540.27,36.964 535.309,39.155 
		532.266,32.485 543.791,24.483 549.229,20.911 555.098,18.134 562.355,15.789 569.77,15.094 574.679,15.522 581.77,16.908 
		588.119,19.841 593.667,24.324 598.149,29.709 600.602,34.831 601.989,40.541 603.429,54.302 583.799,25.551 586.092,26.616 
		588.919,28.323 592.016,30.99 594.575,33.125 594.788,32.485 594.309,31.738 593.398,30.03 590.895,26.775 588.119,24.163 
		584.6,21.711 580.223,19.202 580.223,24.163 575.317,22.618 575.317,18.294 566.673,18.294 562.193,18.881 558.193,19.841 
		554.192,21.227 550.14,22.934 547.043,24.483 543.95,26.511 543.47,27.257 543.364,27.576 543.364,28.964 543.95,30.03 
		545.018,30.509 549.977,27.417 553.819,25.551 557.872,24.003 562.193,23.203 566.673,22.618 575.317,22.618 580.223,24.163 
		583.799,25.551 603.429,54.302 601.723,54.411 	"/>
	<path fill-rule="evenodd" clip-rule="evenodd" d="M484.843,657.521L516,666.003c-18.518,2.842-80.762,25.07-85.783-1.067
		c-2.077-10.819,6.651-22.177,16.03-27.04c9.504-4.928,7.898-20.59,19.245-28.476c48.098-33.429,119.881-26.688,175.117-20.449
		c6.897,0.777,9.814-2.514,17.284-0.316c7.195,2.116,7.95,5.019,13.602,7.894c14.136,7.193,28.207,13.442,34.062,29.711
		c1.237,3.438,1.308,18.993,2.854,19.528c5.277,1.822,9.599,6.095,11.976,11.039c5.336,11.108-0.502,19.756-8.722,27.1
		c-42.521,37.996-116.701,34.328-169.437,30.352c-17.141-1.293-34.218-5.244-51.037-8.585
		c7.628,24.485,105.267,18.429,127.12,16.376c33.304-3.124,89.235-10.927,105.839-45.236c-0.472,15.569,1.266,25.518-10.353,36.753
		c-9.679,9.358-22.174,14.654-34.538,19.286c-25.985,9.731-53.732,14.663-81.457,15.229c-56.793,1.161-111.715-5.269-160.811-36.382
		c24.223-12.508,48.446-25.015,72.669-37.522c8.002-4.131,11.479-10.357,20.915-8.792c12.47,2.067,24.954,3.825,37.584,4.548
		c40.854,2.339,83.707,1.112,119.631-20.503c-0.932,29.731-63.348,30.993-85.388,32.629c-14.806,1.101-30.025,0.266-44.771-1.218
		c-8.1-0.815-45.365-8.871-24.62,2.159c24.04,12.782,74.641,7.499,100.436,2.853c16.458-2.964,31.06-7.96,46.045-15.3
		c11.583-5.672,15.235-23.69-1.487-27.562c18.594-9.508,7.286-27.12-5.921-34.46c-8.868-4.93-38.085,1.49-38.085,1.49
		s-13-5-21.981-7.785l14.723-6.349c-30.401-9.767-72.702-7.512-103.823-1.589c-16.718,3.182-35.963,5.657-49.352,17.153
		c-7.791,6.688-10.938,10.795-12.033,21.03c-0.54,5.042,6.375,19.593-7.369,12.02c-0.646,6.028,3.616,10.161,9.237,13.161
		c-14.907-22.739,13.587-7.907,21.441-5.068c-8.773,6.425-12.792,8.506-19.149,1.175c-0.64,15.064,13.043,3.757,19.149-1.175
		C484.843,654.25,484.843,655.885,484.843,657.521z"/>
	<polygon fill-rule="evenodd" clip-rule="evenodd" points="189.793,119.437 178.485,102.579 177.577,91.805 172.35,93.512 
		171.553,96.443 170.324,97.672 168.618,97.513 167.07,95.806 166.003,93.191 165.685,90.098 166.003,87.165 167.176,85.03 
		168.777,84.548 170.484,85.456 171.553,87.75 177.098,85.884 175.552,67.105 170.324,68.812 169.522,71.745 168.297,72.92 
		166.59,72.814 165.043,71.108 163.978,68.441 163.657,65.398 163.978,62.462 165.205,60.33 166.75,59.85 168.457,60.756 
		169.522,63.052 175.072,61.238 173.899,44.54 168.618,46.246 167.871,49.182 166.59,50.408 164.938,50.249 163.388,48.542 
		162.271,45.93 162.002,42.886 162.271,39.955 163.498,37.713 165.043,37.285 166.75,38.193 167.871,40.541 173.419,38.67 
		171.229,13.066 175.391,8.852 227.241,5.439 227.936,35.472 232.686,35.472 232.686,45.766 228.525,45.766 229.111,57.825 
		234.551,57.825 234.551,68.172 229.752,68.172 230.391,80.547 234.872,80.547 234.872,91.484 232.098,91.484 232.098,102.953 
		228.683,119.437 	"/>
	<polyline fill="none" stroke="#000000" stroke-width="0.3957" stroke-linecap="round" stroke-linejoin="round" points="
		189.793,119.437 178.485,102.579 177.577,91.805 172.35,93.512 171.553,96.443 170.324,97.672 168.618,97.513 167.07,95.806 
		166.003,93.191 165.685,90.098 166.003,87.165 167.176,85.03 168.777,84.548 170.484,85.456 171.553,87.75 177.098,85.884 
		175.552,67.105 170.324,68.812 169.522,71.745 168.297,72.92 166.59,72.814 165.043,71.108 163.978,68.441 163.657,65.398 
		163.978,62.462 165.205,60.33 166.75,59.85 168.457,60.756 169.522,63.052 175.072,61.238 173.899,44.54 168.618,46.246 
		167.871,49.182 166.59,50.408 164.938,50.249 163.388,48.542 162.271,45.93 162.002,42.886 162.271,39.955 163.498,37.713 
		165.043,37.285 166.75,38.193 167.871,40.541 173.419,38.67 171.229,13.066 175.391,8.852 227.241,5.439 227.936,35.472 
		232.686,35.472 232.686,45.766 228.525,45.766 229.111,57.825 234.551,57.825 234.551,68.172 229.752,68.172 230.391,80.547 
		234.872,80.547 234.872,91.484 232.098,91.484 232.098,102.953 228.683,119.437 189.793,119.437 	"/>
	<polygon fill-rule="evenodd" clip-rule="evenodd" points="192.41,148.616 192.516,123.917 228.045,123.917 228.362,148.616 	"/>
	<polyline fill="none" stroke="#000000" stroke-width="0.3957" stroke-linecap="round" stroke-linejoin="round" points="
		192.41,148.616 192.516,123.917 228.045,123.917 228.362,148.616 192.41,148.616 	"/>
	<polygon fill-rule="evenodd" clip-rule="evenodd" points="229.003,172.832 228.525,152.776 192.41,152.776 191.769,172.832 	"/>
	<polyline fill="none" stroke="#000000" stroke-width="0.3957" stroke-linecap="round" stroke-linejoin="round" points="
		229.003,172.832 228.525,152.776 192.41,152.776 191.769,172.832 229.003,172.832 	"/>
	<polygon fill-rule="evenodd" clip-rule="evenodd" points="191.607,196.359 191.769,177.153 229.003,177.046 229.111,196.464 	"/>
	<polyline fill="none" stroke="#000000" stroke-width="0.3957" stroke-linecap="round" stroke-linejoin="round" points="
		191.607,196.359 191.769,177.153 229.003,177.046 229.111,196.464 191.607,196.359 	"/>
	<polygon fill-rule="evenodd" clip-rule="evenodd" points="229.272,220.097 229.111,200.465 191.607,200.465 191.45,220.097 	"/>
	<polyline fill="none" stroke="#000000" stroke-width="0.3957" stroke-linecap="round" stroke-linejoin="round" points="
		229.272,220.097 229.111,200.465 191.607,200.465 191.45,220.097 229.272,220.097 	"/>
	<polygon fill-rule="evenodd" clip-rule="evenodd" points="191.183,241.542 191.45,224.255 229.483,224.255 229.752,241.542 	"/>
	<polyline fill="none" stroke="#000000" stroke-width="0.3957" stroke-linecap="round" stroke-linejoin="round" points="
		191.183,241.542 191.45,224.255 229.483,224.255 229.752,241.542 191.183,241.542 	"/>
	<polygon fill-rule="evenodd" clip-rule="evenodd" points="190.862,300.861 230.548,300.861 230.656,313.822 190.703,313.822 	"/>
	<polyline fill="none" stroke="#000000" stroke-width="0.3957" stroke-linecap="round" stroke-linejoin="round" points="
		190.862,300.861 230.548,300.861 230.656,313.822 190.703,313.822 190.862,300.861 	"/>
	<polygon fill-rule="evenodd" clip-rule="evenodd" points="230.391,283.098 230.548,296.699 190.862,296.699 190.862,283.098 	"/>
	<polyline fill="none" stroke="#000000" stroke-width="0.3957" stroke-linecap="round" stroke-linejoin="round" points="
		230.391,283.098 230.548,296.699 190.862,296.699 190.862,283.098 230.391,283.098 	"/>
	<polygon fill-rule="evenodd" clip-rule="evenodd" points="229.911,265.491 190.968,265.491 190.968,278.776 230.07,278.776 	"/>
	<polyline fill="none" stroke="#000000" stroke-width="0.3957" stroke-linecap="round" stroke-linejoin="round" points="
		229.911,265.491 190.968,265.491 190.968,278.776 230.07,278.776 229.911,265.491 	"/>
	<polygon fill-rule="evenodd" clip-rule="evenodd" points="229.911,261.333 229.752,245.596 191.183,245.596 191.183,261.333 	"/>
	<polyline fill="none" stroke="#000000" stroke-width="0.3957" stroke-linecap="round" stroke-linejoin="round" points="
		229.911,261.333 229.752,245.596 191.183,245.596 191.183,261.333 229.911,261.333 	"/>
	<polygon fill-rule="evenodd" clip-rule="evenodd" points="231.297,388.663 189.9,388.663 189.9,397.04 231.458,397.04 	"/>
	<polyline fill="none" stroke="#000000" stroke-width="0.3957" stroke-linecap="round" stroke-linejoin="round" points="
		231.297,388.663 189.9,388.663 189.9,397.04 231.458,397.04 231.297,388.663 	"/>
	<polygon fill-rule="evenodd" clip-rule="evenodd" points="190.062,376.663 189.9,385.306 231.297,385.306 231.136,376.663 	"/>
	<polyline fill="none" stroke="#000000" stroke-width="0.3957" stroke-linecap="round" stroke-linejoin="round" points="
		190.062,376.663 189.9,385.306 231.297,385.306 231.136,376.663 190.062,376.663 	"/>
	<polygon fill-rule="evenodd" clip-rule="evenodd" points="231.297,362.738 231.297,372.662 190.062,372.662 190.223,362.738 	"/>
	<polyline fill="none" stroke="#000000" stroke-width="0.3957" stroke-linecap="round" stroke-linejoin="round" points="
		231.297,362.738 231.297,372.662 190.062,372.662 190.223,362.738 231.297,362.738 	"/>
	<polygon fill-rule="evenodd" clip-rule="evenodd" points="190.383,348.549 190.223,358.311 231.297,358.311 231.136,348.549 	"/>
	<polyline fill="none" stroke="#000000" stroke-width="0.3957" stroke-linecap="round" stroke-linejoin="round" points="
		190.383,348.549 190.223,358.311 231.297,358.311 231.136,348.549 190.383,348.549 	"/>
	<polygon fill-rule="evenodd" clip-rule="evenodd" points="230.979,335.427 231.136,343.909 190.383,343.909 190.383,335.427 	"/>
	<polyline fill="none" stroke="#000000" stroke-width="0.3957" stroke-linecap="round" stroke-linejoin="round" points="
		230.979,335.427 231.136,343.909 190.383,343.909 190.383,335.427 230.979,335.427 	"/>
	<polygon fill-rule="evenodd" clip-rule="evenodd" points="190.703,317.825 190.383,330.949 230.979,330.949 230.656,317.825 	"/>
	<polyline fill="none" stroke="#000000" stroke-width="0.3957" stroke-linecap="round" stroke-linejoin="round" points="
		190.703,317.825 190.383,330.949 230.979,330.949 230.656,317.825 190.703,317.825 	"/>
	<path fill-rule="evenodd" clip-rule="evenodd" d="M231.938,431.02c-11.782,0-23.564,0-35.347,0c-2.808,0-7.171-1.505-7.171,1.781
		c0,4.283,1.926,13.494-1.281,16.569c-13.852,13.282-14.847,39.524,3.318,50.092c18.751,10.909,40.647,3.982,48.417-16.64
		c3.169-8.413,1.377-18.301-3.031-25.877c-1.479-2.542-4.906-5.308-4.906-8.054C231.938,442.935,231.938,436.977,231.938,431.02z"/>
	<polyline fill="none" points="189.421,448.142 186.859,450.598 182.486,456.039 179.445,462.067 177.739,468.682 177.577,475.617 
		178.804,482.287 181.421,488.633 185.42,494.34 190.542,498.929 196.409,502.342 202.863,504.529 209.692,505.119 216.521,504.318 
		222.975,502.183 228.842,498.66 233.964,493.861 237.808,488.312 240.259,481.806 241.485,475.191 241.485,473.161 
		240.685,466.386 238.552,459.88 235.137,454.011 232.686,451.078 231.938,450.598 231.938,431.02 	"/>
	<line fill="none" x1="231.938" y1="431.02" x2="189.421" y2="431.02"/>
	<polygon fill-rule="evenodd" clip-rule="evenodd" points="231.724,420.511 231.938,428.086 189.421,428.086 189.636,420.511 
		189.636,420.511 	"/>
	<polyline fill="none" stroke="#000000" stroke-width="0.3957" stroke-linecap="round" stroke-linejoin="round" points="
		231.724,420.511 231.938,428.086 189.421,428.086 189.636,420.511 189.636,420.511 231.724,420.511 	"/>
	<polygon fill-rule="evenodd" clip-rule="evenodd" points="189.9,399.975 189.793,407.55 231.458,407.55 231.458,399.975 	"/>
	<polyline fill="none" stroke="#000000" stroke-width="0.3957" stroke-linecap="round" stroke-linejoin="round" points="
		189.9,399.975 189.793,407.55 231.458,407.55 231.458,399.975 189.9,399.975 	"/>
	<polygon fill-rule="evenodd" clip-rule="evenodd" points="231.724,417.149 189.636,417.149 189.636,411.71 231.618,411.71 	"/>
	<polyline fill="none" stroke="#000000" stroke-width="0.3957" stroke-linecap="round" stroke-linejoin="round" points="
		231.724,417.149 189.636,417.149 189.636,411.71 231.618,411.71 231.724,417.149 	"/>
	<path fill-rule="evenodd" clip-rule="evenodd" d="M132.449,707.133c-33.798-13.86-52.774-46.329-54.101-82.058
		c-1.634-43.986,27.778-71.012,43.246-108.677c5.771-14.059-0.627-29.223-5.252-42.606c-6.425-18.592-9.373-36.401-5.292-56.077
		c8.336-40.187,41.324-55.631,79.173-55.083c0-0.817,0-1.636,0-2.456c-39.111-0.215-83.879,3.343-99.008,46.242
		c-6.982,19.801-5.989,39.291,0.693,59.009c8.325,24.568,11.043,36.355-3.15,59.641c-39.812,65.319-51.912,175.072,51.428,184.943
		L132.449,707.133z"/>
	<polygon fill-rule="evenodd" clip-rule="evenodd" points="238.072,597.297 185.74,598.094 185.74,603.163 238.072,602.417 
		238.072,597.297 274.239,590.361 273.441,613.514 147.012,616.927 147.012,593.721 274.239,590.361 	"/>
	<polyline fill="none" stroke="#000000" stroke-width="0.3957" stroke-linecap="round" stroke-linejoin="round" points="
		238.072,597.297 185.74,598.094 185.74,603.163 238.072,602.417 238.072,597.297 274.239,590.361 273.441,613.514 147.012,616.927 
		147.012,593.721 274.239,590.361 238.072,597.297 	"/>
	<polygon fill-rule="evenodd" clip-rule="evenodd" points="473.749,180.569 484.843,409.257 483.3,409.257 472.789,180.569 	"/>
	<polyline fill="none" stroke="#000000" stroke-width="0.3957" stroke-linecap="round" stroke-linejoin="round" points="
		473.749,180.569 484.843,409.257 483.3,409.257 472.789,180.569 473.749,180.569 	"/>
	<polygon fill-rule="evenodd" clip-rule="evenodd" points="482.071,409.257 476.204,409.257 468.629,180.569 470.335,180.569 
		479.402,401.522 	"/>
	<polyline fill="none" stroke="#000000" stroke-width="0.3957" stroke-linecap="round" stroke-linejoin="round" points="
		482.071,409.257 476.204,409.257 468.629,180.569 470.335,180.569 479.402,401.522 482.071,409.257 	"/>
	<polygon fill-rule="evenodd" clip-rule="evenodd" points="472.789,409.257 467.719,409.257 463.239,180.569 465.693,180.569 
		471.881,405.842 	"/>
	<polyline fill="none" stroke="#000000" stroke-width="0.3957" stroke-linecap="round" stroke-linejoin="round" points="
		472.789,409.257 467.719,409.257 463.239,180.569 465.693,180.569 471.881,405.842 472.789,409.257 	"/>
	<polygon fill-rule="evenodd" clip-rule="evenodd" points="451.822,178.115 446.702,153.684 436.354,153.684 436.354,160.031 
		433.42,159.71 429.419,158.165 426.272,156.191 424.297,154.805 423.337,153.684 422.751,152.619 422.431,151.39 422.271,150.163 
		422.431,148.882 422.91,147.709 423.55,146.644 424.297,145.68 425.207,145.043 427.229,143.708 429.419,142.428 431.713,141.466 
		434.059,140.881 436.354,140.401 436.354,148.777 445.958,148.777 444.516,132.879 432.514,132.879 432.514,139.226 
		430.751,139.015 428.299,138.427 426.003,137.683 423.816,136.718 421.843,135.333 419.817,133.946 419.656,133.785 
		418.857,132.879 418.272,131.813 417.947,130.533 417.79,129.306 417.947,128.078 418.272,126.851 418.857,125.786 
		419.817,124.824 420.724,124.238 422.751,122.852 424.938,121.572 427.072,120.661 429.58,120.024 432.514,119.596 432.514,127.92 
		439.447,127.92 442.65,124.238 442.22,95.806 447.77,91.805 463.401,91.805 464.305,99.646 468.945,102.579 468.945,107.06 
		471.881,107.86 471.881,116.342 469.375,116.342 466.173,117.889 469.535,120.982 462.118,120.982 465.854,137.467 
		477.747,137.467 477.747,129.466 478.658,129.466 480.95,129.943 485.644,131.813 487.617,133.2 489.646,134.532 490.551,135.653 
		491.191,136.718 491.461,137.947 491.618,139.226 491.461,140.401 491.03,141.681 490.392,142.747 489.646,143.708 486.713,145.68 
		484.522,146.909 482.23,147.815 479.885,148.457 477.747,148.777 477.747,142.428 466.334,142.428 471.4,161.58 482.656,161.58 
		482.23,153.684 483.405,153.845 485.751,154.484 488.098,155.231 490.232,156.191 492.363,157.577 494.395,158.965 
		495.298,160.031 495.939,161.152 496.26,162.327 496.42,163.607 496.26,164.832 495.78,166.059 495.192,167.126 494.395,168.084 
		493.484,168.833 491.461,170.219 489.324,171.287 486.979,172.247 484.682,172.832 482.656,172.832 482.656,166.537 
		471.881,166.537 472.948,170.06 473.374,173.473 473.749,180.569 453.37,180.569 	"/>
	<polyline fill="none" stroke="#000000" stroke-width="0.3957" stroke-linecap="round" stroke-linejoin="round" points="
		451.822,178.115 446.702,153.684 436.354,153.684 436.354,160.031 433.42,159.71 429.419,158.165 426.272,156.191 424.297,154.805 
		423.337,153.684 422.751,152.619 422.431,151.39 422.271,150.163 422.431,148.882 422.91,147.709 423.55,146.644 424.297,145.68 
		425.207,145.043 427.229,143.708 429.419,142.428 431.713,141.466 434.059,140.881 436.354,140.401 436.354,148.777 
		445.958,148.777 444.516,132.879 432.514,132.879 432.514,139.226 430.751,139.015 428.299,138.427 426.003,137.683 
		423.816,136.718 421.843,135.333 419.817,133.946 419.656,133.785 418.857,132.879 418.272,131.813 417.947,130.533 
		417.79,129.306 417.947,128.078 418.272,126.851 418.857,125.786 419.817,124.824 420.724,124.238 422.751,122.852 
		424.938,121.572 427.072,120.661 429.58,120.024 432.514,119.596 432.514,127.92 439.447,127.92 442.65,124.238 442.22,95.806 
		447.77,91.805 463.401,91.805 464.305,99.646 468.945,102.579 468.945,107.06 471.881,107.86 471.881,116.342 469.375,116.342 
		466.173,117.889 469.535,120.982 462.118,120.982 465.854,137.467 477.747,137.467 477.747,129.466 478.658,129.466 
		480.95,129.943 485.644,131.813 487.617,133.2 489.646,134.532 490.551,135.653 491.191,136.718 491.461,137.947 491.618,139.226 
		491.461,140.401 491.03,141.681 490.392,142.747 489.646,143.708 486.713,145.68 484.522,146.909 482.23,147.815 479.885,148.457 
		477.747,148.777 477.747,142.428 466.334,142.428 471.4,161.58 482.656,161.58 482.23,153.684 483.405,153.845 485.751,154.484 
		488.098,155.231 490.232,156.191 492.363,157.577 494.395,158.965 495.298,160.031 495.939,161.152 496.26,162.327 496.42,163.607 
		496.26,164.832 495.78,166.059 495.192,167.126 494.395,168.084 493.484,168.833 491.461,170.219 489.324,171.287 486.979,172.247 
		484.682,172.832 482.656,172.832 482.656,166.537 471.881,166.537 472.948,170.06 473.374,173.473 473.749,180.569 453.37,180.569 
		451.822,178.115 	"/>
	<polygon fill-rule="evenodd" clip-rule="evenodd" points="439.447,290.831 432.033,292.326 425.687,294.351 420.134,297.285 
		414.749,301.288 409.95,305.766 405.788,310.888 402.054,316.437 398.959,322.303 396.667,328.493 396.236,330.2 394.213,339.002 
		392.929,347.912 392.929,356.764 394.213,365.355 396.236,374.317 396.826,376.342 397.412,378.369 398.212,382.85 
		398.374,387.492 397.571,391.971 396.236,396.292 398.959,399.067 399.439,399.067 402.211,399.174 404.987,400.132 
		407.333,401.682 409.307,403.655 410.587,406.322 411.177,409.098 412.242,414.002 413.202,421.152 413.308,428.248 
		412.722,435.502 411.495,442.437 409.47,449.371 406.693,456.039 402.534,462.387 399.439,465 395.757,467.135 391.863,468.682 
		387.544,469.483 384.021,475.832 384.021,475.832 385.889,478.55 386.795,481.486 386.954,484.313 383.223,490.448 
		380.128,497.115 377.833,503.889 376.127,510.824 375.169,517.973 375.062,525.174 375.542,532.324 376.927,539.416 
		378.901,546.352 381.516,552.965 384.929,559.314 388.93,565.342 393.572,570.729 398.854,575.851 404.399,580.334 
		410.587,584.173 413.949,585.88 386.954,578.148 379.379,574.625 373.354,570.888 367.645,566.621 362.419,561.663 
		357.724,556.273 353.725,550.352 350.202,544.163 347.376,537.549 345.402,530.723 344.012,523.789 343.375,516.693 
		343.588,509.438 344.333,502.342 346.042,495.408 348.336,488.792 351.271,482.287 352.978,479.831 354.043,476.897 
		354.364,473.961 353.882,470.869 352.814,468.042 351.271,465.909 355.589,461.001 361.298,460.201 364.232,459.56 366.9,458.333 
		369.352,456.519 371.061,454.011 372.233,451.239 373.193,449.104 375.38,443.664 377.407,438.275 378.742,432.569 379.379,426.86 
		379.224,420.937 378.742,415.283 377.997,412.455 377.035,409.524 375.647,406.59 373.835,404.135 371.381,402.323 
		368.446,400.933 365.618,400.775 362.846,400.775 361.456,398.589 361.78,397.36 364.072,395.653 366.259,392.72 364.391,387.012 
		362.205,377.73 360.711,368.287 359.91,358.739 359.749,349.188 360.554,339.589 361.936,330.2 363.272,326.625 365.938,321.238 
		369.194,316.118 373.034,311.368 377.517,307.157 382.314,303.633 387.703,300.541 393.303,298.247 404.723,295.152 
		416.297,292.696 428.14,290.938 439.928,289.873 451.822,289.765 	"/>
	<polyline fill="none" stroke="#000000" stroke-width="0.3957" stroke-linecap="round" stroke-linejoin="round" points="
		439.447,290.831 432.033,292.326 425.687,294.351 420.134,297.285 414.749,301.288 409.95,305.766 405.788,310.888 
		402.054,316.437 398.959,322.303 396.667,328.493 396.236,330.2 394.213,339.002 392.929,347.912 392.929,356.764 394.213,365.355 
		396.236,374.317 396.826,376.342 397.412,378.369 398.212,382.85 398.374,387.492 397.571,391.971 396.236,396.292 
		398.959,399.067 399.439,399.067 402.211,399.174 404.987,400.132 407.333,401.682 409.307,403.655 410.587,406.322 
		411.177,409.098 412.242,414.002 413.202,421.152 413.308,428.248 412.722,435.502 411.495,442.437 409.47,449.371 
		406.693,456.039 402.534,462.387 399.439,465 395.757,467.135 391.863,468.682 387.544,469.483 384.021,475.832 384.021,475.832 
		385.889,478.55 386.795,481.486 386.954,484.313 383.223,490.448 380.128,497.115 377.833,503.889 376.127,510.824 
		375.169,517.973 375.062,525.174 375.542,532.324 376.927,539.416 378.901,546.352 381.516,552.965 384.929,559.314 
		388.93,565.342 393.572,570.729 398.854,575.851 404.399,580.334 410.587,584.173 413.949,585.88 386.954,578.148 379.379,574.625 
		373.354,570.888 367.645,566.621 362.419,561.663 357.724,556.273 353.725,550.352 350.202,544.163 347.376,537.549 
		345.402,530.723 344.012,523.789 343.375,516.693 343.588,509.438 344.333,502.342 346.042,495.408 348.336,488.792 
		351.271,482.287 352.978,479.831 354.043,476.897 354.364,473.961 353.882,470.869 352.814,468.042 351.271,465.909 
		355.589,461.001 361.298,460.201 364.232,459.56 366.9,458.333 369.352,456.519 371.061,454.011 372.233,451.239 373.193,449.104 
		375.38,443.664 377.407,438.275 378.742,432.569 379.379,426.86 379.224,420.937 378.742,415.283 377.997,412.455 377.035,409.524 
		375.647,406.59 373.835,404.135 371.381,402.323 368.446,400.933 365.618,400.775 362.846,400.775 361.456,398.589 361.78,397.36 
		364.072,395.653 366.259,392.72 364.391,387.012 362.205,377.73 360.711,368.287 359.91,358.739 359.749,349.188 360.554,339.589 
		361.936,330.2 363.272,326.625 365.938,321.238 369.194,316.118 373.034,311.368 377.517,307.157 382.314,303.633 387.703,300.541 
		393.303,298.247 404.723,295.152 416.297,292.696 428.14,290.938 439.928,289.873 451.822,289.765 439.447,290.831 	"/>
	<polygon fill-rule="evenodd" clip-rule="evenodd" points="450.226,409.257 453.37,180.569 456.411,180.569 455.61,409.257 	"/>
	<polyline fill="none" stroke="#000000" stroke-width="0.3957" stroke-linecap="round" stroke-linejoin="round" points="
		450.226,409.257 453.37,180.569 456.411,180.569 455.61,409.257 450.226,409.257 	"/>
	<polygon fill-rule="evenodd" clip-rule="evenodd" points="458.918,180.569 459.824,180.569 464.787,406.801 465.693,409.257 
		458.918,409.257 	"/>
	<polyline fill="none" stroke="#000000" stroke-width="0.3957" stroke-linecap="round" stroke-linejoin="round" points="
		458.918,180.569 459.824,180.569 464.787,406.801 465.693,409.257 458.918,409.257 458.918,180.569 	"/>
	<polygon fill-rule="evenodd" clip-rule="evenodd" points="509.862,481.643 509.7,482.444 509.543,483.033 508.956,483.513 
		508.584,483.672 508.155,483.672 507.514,483.672 506.718,483.513 506.607,483.513 505.54,482.872 504.475,482.123 
		503.354,480.578 502.93,479.51 502.288,478.07 501.809,476.417 501.539,474.87 501.167,473.161 500.743,470.389 500.264,466.976 
		499.674,462.067 499.034,451.078 499.034,450.598 498.712,448.142 498.447,445.796 497.808,443.558 497.328,441.051 
		496.74,438.754 495.939,436.568 495.033,434.381 494.232,432.727 493.647,431.769 492.847,431.02 492.363,430.38 491.618,429.634 
		490.392,428.993 489.164,428.728 488.364,428.728 487.137,428.833 486.552,429.154 485.644,429.634 484.682,430.38 
		483.885,431.181 483.777,431.181 482.656,431.661 481.91,432.727 481.269,434.112 481.269,434.597 481.269,435.341 
		481.748,436.248 482.656,437.209 484.202,437.794 485.91,437.315 486.979,436.142 487.137,434.112 486.979,432.727 
		486.231,431.769 486.818,431.448 487.617,431.448 488.685,431.661 489.164,431.769 490.392,432.247 491.191,433.047 
		491.618,433.634 492.363,436.142 492.847,438.595 493.484,441.051 493.753,443.664 494.127,446.492 494.395,451.719 
		494.554,455.238 495.192,461.747 495.298,464.2 495.939,467.135 496.581,470.069 497.328,473.004 498.231,475.937 499.034,478.284 
		499.515,479.51 500.58,481.005 501.539,482.287 502.715,483.513 504.156,484.899 505.808,485.485 507.09,485.7 508.956,485.7 
		509.862,485.485 510.449,485.058 510.93,484.579 511.409,483.832 511.887,483.033 512.156,482.287 512.156,481.378 
		512.957,480.898 513.544,480.256 514.024,478.391 513.438,476.417 512.156,475.348 510.61,475.032 509.221,475.348 
		508.263,476.417 507.835,478.07 507.835,478.07 507.835,478.07 508.155,479.831 509.221,481.216 509.862,481.643 	"/>
	<polyline fill="none" stroke="#000000" stroke-width="0.3957" stroke-linecap="round" stroke-linejoin="round" points="
		509.862,481.643 509.7,482.444 509.543,483.033 508.956,483.513 508.584,483.672 508.155,483.672 507.514,483.672 506.718,483.513 
		506.607,483.513 505.54,482.872 504.475,482.123 503.354,480.578 502.93,479.51 502.288,478.07 501.809,476.417 501.539,474.87 
		501.167,473.161 500.743,470.389 500.264,466.976 499.674,462.067 499.034,451.078 499.034,450.598 498.712,448.142 
		498.447,445.796 497.808,443.558 497.328,441.051 496.74,438.754 495.939,436.568 495.033,434.381 494.232,432.727 
		493.647,431.769 492.847,431.02 492.363,430.38 491.618,429.634 490.392,428.993 489.164,428.728 488.364,428.728 487.137,428.833 
		486.552,429.154 485.644,429.634 484.682,430.38 483.885,431.181 483.777,431.181 482.656,431.661 481.91,432.727 481.269,434.112 
		481.269,434.597 481.269,435.341 481.748,436.248 482.656,437.209 484.202,437.794 485.91,437.315 486.979,436.142 
		487.137,434.112 486.979,432.727 486.231,431.769 486.818,431.448 487.617,431.448 488.685,431.661 489.164,431.769 
		490.392,432.247 491.191,433.047 491.618,433.634 492.363,436.142 492.847,438.595 493.484,441.051 493.753,443.664 
		494.127,446.492 494.395,451.719 494.554,455.238 495.192,461.747 495.298,464.2 495.939,467.135 496.581,470.069 497.328,473.004 
		498.231,475.937 499.034,478.284 499.515,479.51 500.58,481.005 501.539,482.287 502.715,483.513 504.156,484.899 505.808,485.485 
		507.09,485.7 508.956,485.7 509.862,485.485 510.449,485.058 510.93,484.579 511.409,483.832 511.887,483.033 512.156,482.287 
		512.156,481.378 512.957,480.898 513.544,480.256 514.024,478.391 513.438,476.417 512.156,475.348 510.61,475.032 
		509.221,475.348 508.263,476.417 507.835,478.07 507.835,478.07 507.835,478.07 508.155,479.831 509.221,481.216 509.862,481.643 
		509.862,481.643 	"/>
	<polygon fill-rule="evenodd" clip-rule="evenodd" points="488.844,550.833 486.818,551.58 485.166,552.54 483.405,553.607 
		481.91,554.993 480.364,556.38 479.138,557.928 478.017,559.635 477.11,561.447 476.361,563.317 475.725,565.342 475.403,567.37 
		475.135,569.343 475.244,571.689 475.135,572.169 474.495,574.145 473.537,576.278 472.468,578.148 471.241,580.013 
		469.694,581.826 468.148,583.427 466.442,584.759 469.855,585.88 473.269,586.625 476.79,587.266 480.364,587.747 483.885,587.906 
		487.299,587.906 490.817,587.587 494.395,587.266 497.967,586.625 501.328,585.88 504.742,584.759 507.994,583.586 
		511.196,582.305 514.504,580.651 517.545,578.944 520.479,577.078 523.307,574.891 526.026,572.758 528.693,570.303 
		530.508,568.437 531.306,567.37 531.947,566.141 532.533,564.754 532.696,563.317 532.854,561.927 532.696,560.541 
		532.373,559.208 531.947,557.769 531.146,556.542 530.508,555.632 527.094,554.246 523.571,552.965 520.053,551.9 516.37,550.994 
		512.636,550.247 508.956,549.767 505.222,549.447 501.539,549.447 497.808,549.447 494.127,549.767 490.712,550.247 	"/>
	<polyline fill="none" stroke="#000000" stroke-width="0.3957" stroke-linecap="round" stroke-linejoin="round" points="
		488.844,550.833 486.818,551.58 485.166,552.54 483.405,553.607 481.91,554.993 480.364,556.38 479.138,557.928 478.017,559.635 
		477.11,561.447 476.361,563.317 475.725,565.342 475.403,567.37 475.135,569.343 475.244,571.689 475.135,572.169 474.495,574.145 
		473.537,576.278 472.468,578.148 471.241,580.013 469.694,581.826 468.148,583.427 466.442,584.759 469.855,585.88 
		473.269,586.625 476.79,587.266 480.364,587.747 483.885,587.906 487.299,587.906 490.817,587.587 494.395,587.266 
		497.967,586.625 501.328,585.88 504.742,584.759 507.994,583.586 511.196,582.305 514.504,580.651 517.545,578.944 
		520.479,577.078 523.307,574.891 526.026,572.758 528.693,570.303 530.508,568.437 531.306,567.37 531.947,566.141 
		532.533,564.754 532.696,563.317 532.854,561.927 532.696,560.541 532.373,559.208 531.947,557.769 531.146,556.542 
		530.508,555.632 527.094,554.246 523.571,552.965 520.053,551.9 516.37,550.994 512.636,550.247 508.956,549.767 505.222,549.447 
		501.539,549.447 497.808,549.447 494.127,549.767 490.712,550.247 488.844,550.833 	"/>
	<polygon fill-rule="evenodd" clip-rule="evenodd" points="485.751,455.879 486.072,456.519 486.231,457.267 486.231,458.014 
		486.231,458.815 486.072,459.56 485.751,460.201 491.777,460.201 489.164,455.718 485.751,455.718 	"/>
	<polyline fill="none" stroke="#000000" stroke-width="0.3957" stroke-linecap="round" stroke-linejoin="round" points="
		485.751,455.879 486.072,456.519 486.231,457.267 486.231,458.014 486.231,458.815 486.072,459.56 485.751,460.201 
		491.777,460.201 489.164,455.718 485.751,455.718 485.751,455.879 	"/>
	<polygon fill-rule="evenodd" clip-rule="evenodd" points="477.747,455.718 477.855,456.146 478.017,456.945 478.017,457.693 
		478.017,458.653 477.855,459.454 477.747,460.201 482.815,460.201 482.656,459.721 482.336,458.974 482.336,458.173 
		482.336,457.267 482.495,456.519 482.815,455.718 	"/>
	<polyline fill="none" stroke="#000000" stroke-width="0.3957" stroke-linecap="round" stroke-linejoin="round" points="
		477.747,455.718 477.855,456.146 478.017,456.945 478.017,457.693 478.017,458.653 477.855,459.454 477.747,460.201 
		482.815,460.201 482.656,459.721 482.336,458.974 482.336,458.173 482.336,457.267 482.495,456.519 482.815,455.718 
		477.747,455.718 	"/>
	<polygon fill-rule="evenodd" clip-rule="evenodd" points="469.375,455.718 469.535,456.146 469.855,456.945 469.855,457.693 
		469.855,458.653 469.694,459.454 469.375,460.201 474.495,460.201 474.334,459.721 474.175,458.974 474.175,458.014 
		474.175,457.267 474.334,456.519 474.495,455.718 	"/>
	<polyline fill="none" stroke="#000000" stroke-width="0.3957" stroke-linecap="round" stroke-linejoin="round" points="
		469.375,455.718 469.535,456.146 469.855,456.945 469.855,457.693 469.855,458.653 469.694,459.454 469.375,460.201 
		474.495,460.201 474.334,459.721 474.175,458.974 474.175,458.014 474.175,457.267 474.334,456.519 474.495,455.718 
		469.375,455.718 	"/>
	<polygon fill-rule="evenodd" clip-rule="evenodd" points="465.693,460.201 465.531,459.721 465.267,458.974 465.267,458.173 
		465.267,457.267 465.372,456.519 465.693,455.718 458.117,455.718 458.281,456.146 458.546,456.945 458.546,457.693 
		458.546,458.653 458.438,459.454 458.117,460.201 	"/>
	<polyline fill="none" stroke="#000000" stroke-width="0.3957" stroke-linecap="round" stroke-linejoin="round" points="
		465.693,460.201 465.531,459.721 465.267,458.974 465.267,458.173 465.267,457.267 465.372,456.519 465.693,455.718 
		458.117,455.718 458.281,456.146 458.546,456.945 458.546,457.693 458.546,458.653 458.438,459.454 458.117,460.201 
		465.693,460.201 	"/>
	<polygon fill-rule="evenodd" clip-rule="evenodd" points="455.505,459.721 455.346,458.974 455.185,458.014 455.185,457.267 
		455.346,456.519 455.61,455.718 449.957,455.718 449.315,457.267 451.127,460.201 455.61,460.201 	"/>
	<polyline fill="none" stroke="#000000" stroke-width="0.3957" stroke-linecap="round" stroke-linejoin="round" points="
		455.505,459.721 455.346,458.974 455.185,458.014 455.185,457.267 455.346,456.519 455.61,455.718 449.957,455.718 
		449.315,457.267 451.127,460.201 455.61,460.201 455.505,459.721 	"/>
	<polygon fill-rule="evenodd" clip-rule="evenodd" points="449.477,588.174 444.996,504.529 453.159,504.318 452.571,514.237 
		456.092,514.237 457.477,504.318 462.118,504.318 460.573,514.237 463.825,514.237 465.693,504.318 468.786,504.318 
		467.719,514.237 470.174,514.237 472.789,504.318 476.204,504.318 475.403,514.237 478.335,514.237 480.042,504.318 
		482.815,504.529 466.92,583.106 466.92,590.523 452.998,590.523 449.477,588.174 	"/>
	<polyline fill="none" stroke="#000000" stroke-width="0.3957" stroke-linecap="round" stroke-linejoin="round" points="
		449.477,588.174 444.996,504.529 453.159,504.318 452.571,514.237 456.092,514.237 457.477,504.318 462.118,504.318 
		460.573,514.237 463.825,514.237 465.693,504.318 468.786,504.318 467.719,514.237 470.174,514.237 472.789,504.318 
		476.204,504.318 475.403,514.237 478.335,514.237 480.042,504.318 482.815,504.529 466.92,583.106 466.92,590.523 452.998,590.523 
		449.477,588.174 449.477,588.174 	"/>
	<polygon fill-rule="evenodd" clip-rule="evenodd" points="415.176,479.671 415.496,480.256 415.977,480.898 416.615,481.378 
		417.203,481.486 417.947,481.643 418.752,481.378 419.068,481.378 420.618,480.256 421.524,479.351 422.59,477.964 
		423.231,476.523 424.031,475.348 424.617,473.589 425.1,472.096 425.579,470.548 425.687,469.909 426.752,464.52 427.394,459.241 
		428.14,448.463 428.299,448.037 428.62,445.53 429.1,443.184 429.58,441.051 430.006,438.595 430.966,436.248 431.872,434.112 
		432.993,432.089 434.325,429.903 434.969,429.313 435.716,428.566 436.676,427.766 437.58,427.18 438.646,426.7 440.033,426.379 
		440.836,426.379 442.22,426.379 443.287,426.7 444.408,427.18 445.478,427.766 446.223,428.566 446.382,428.566 447.449,428.833 
		448.676,430.114 449.156,431.769 449.156,431.769 449.156,431.769 448.676,433.634 447.449,434.861 445.742,435.341 
		444.088,434.861 442.65,433.634 442.22,431.769 442.65,430.114 443.609,429.154 442.65,428.833 441.74,428.833 440.674,428.993 
		440.033,429.154 438.646,429.793 437.902,430.594 437.422,431.181 436.354,433.634 435.555,436.142 434.969,438.754 
		434.648,441.208 434.325,443.823 433.685,449.104 433.579,452.466 432.993,458.974 432.514,461.747 431.872,464.679 
		430.966,467.615 430.006,470.389 428.938,473.161 427.553,475.617 427.229,476.258 426.003,478.07 425.1,479.351 423.55,480.898 
		421.843,482.287 420.134,483.033 418.428,483.513 416.402,483.513 415.337,483.244 414.27,482.444 413.787,481.965 
		413.202,481.216 412.884,480.256 412.722,479.51 412.616,478.55 411.177,477.165 410.746,475.458 411.177,473.802 412.616,472.417 
		414.27,471.934 415.977,472.417 417.203,473.802 417.683,475.458 417.203,477.165 415.977,478.391 415.07,478.871 	"/>
	<polyline fill="none" stroke="#000000" stroke-width="0.3957" stroke-linecap="round" stroke-linejoin="round" points="
		415.176,479.671 415.496,480.256 415.977,480.898 416.615,481.378 417.203,481.486 417.947,481.643 418.752,481.378 
		419.068,481.378 420.618,480.256 421.524,479.351 422.59,477.964 423.231,476.523 424.031,475.348 424.617,473.589 425.1,472.096 
		425.579,470.548 425.687,469.909 426.752,464.52 427.394,459.241 428.14,448.463 428.299,448.037 428.62,445.53 429.1,443.184 
		429.58,441.051 430.006,438.595 430.966,436.248 431.872,434.112 432.993,432.089 434.325,429.903 434.969,429.313 
		435.716,428.566 436.676,427.766 437.58,427.18 438.646,426.7 440.033,426.379 440.836,426.379 442.22,426.379 443.287,426.7 
		444.408,427.18 445.478,427.766 446.223,428.566 446.382,428.566 447.449,428.833 448.676,430.114 449.156,431.769 
		449.156,431.769 449.156,431.769 448.676,433.634 447.449,434.861 445.742,435.341 444.088,434.861 442.65,433.634 442.22,431.769 
		442.65,430.114 443.609,429.154 442.65,428.833 441.74,428.833 440.674,428.993 440.033,429.154 438.646,429.793 437.902,430.594 
		437.422,431.181 436.354,433.634 435.555,436.142 434.969,438.754 434.648,441.208 434.325,443.823 433.685,449.104 
		433.579,452.466 432.993,458.974 432.514,461.747 431.872,464.679 430.966,467.615 430.006,470.389 428.938,473.161 
		427.553,475.617 427.229,476.258 426.003,478.07 425.1,479.351 423.55,480.898 421.843,482.287 420.134,483.033 418.428,483.513 
		416.402,483.513 415.337,483.244 414.27,482.444 413.787,481.965 413.202,481.216 412.884,480.256 412.722,479.51 412.616,478.55 
		411.177,477.165 410.746,475.458 411.177,473.802 412.616,472.417 414.27,471.934 415.977,472.417 417.203,473.802 
		417.683,475.458 417.203,477.165 415.977,478.391 415.07,478.871 415.176,479.671 	"/>
	<polygon fill-rule="evenodd" clip-rule="evenodd" points="616.979,405.254 618.26,405.842 619.433,405.254 619.433,397.201 
		618.26,396.559 616.979,397.201 616.979,405.254 	"/>
	<polyline fill="none" stroke="#000000" stroke-width="0.3957" stroke-linecap="round" stroke-linejoin="round" points="
		616.979,405.254 618.26,405.842 619.433,405.254 619.433,397.201 618.26,396.559 616.979,397.201 616.979,405.254 616.979,405.254 
			"/>
	<polygon fill-rule="evenodd" clip-rule="evenodd" points="616.979,389.147 618.26,389.785 619.433,389.147 619.433,379.275 
		618.26,378.69 616.979,379.275 616.979,389.147 	"/>
	<polyline fill="none" stroke="#000000" stroke-width="0.3957" stroke-linecap="round" stroke-linejoin="round" points="
		616.979,389.147 618.26,389.785 619.433,389.147 619.433,379.275 618.26,378.69 616.979,379.275 616.979,389.147 616.979,389.147 	
		"/>
	<polygon fill-rule="evenodd" clip-rule="evenodd" points="514.773,38.67 509.862,38.67 509.862,41.021 504.58,35.098 
		469.375,42.193 455.505,52.541 501.06,56.437 509.862,50.249 509.862,52.916 514.773,52.916 	"/>
	<polyline fill="none" stroke="#000000" stroke-width="0.3957" stroke-linecap="round" stroke-linejoin="round" points="
		514.773,38.67 509.862,38.67 509.862,41.021 504.58,35.098 469.375,42.193 455.505,52.541 501.06,56.437 509.862,50.249 
		509.862,52.916 514.773,52.916 514.773,38.67 	"/>
	<polygon fill-rule="evenodd" clip-rule="evenodd" points="514.773,47.154 524.372,47.795 533.817,46.41 542.295,42.994 
		547.846,39.955 552.752,36.647 557.393,33.925 562.779,32.059 568.543,32.059 574.409,33.925 578.677,37.926 581.77,43.474 
		583.371,49.823 583.799,56.437 581.985,49.343 579.318,43.313 575.744,38.991 572.223,36.964 568.063,36.964 564.221,38.085 
		561.714,39.74 555.686,43.474 549.229,46.41 543.044,48.275 537.816,49.343 531.947,50.087 523.307,50.249 514.773,49.022 	"/>
	<polyline fill="none" stroke="#000000" stroke-width="0.3957" stroke-linecap="round" stroke-linejoin="round" points="
		514.773,47.154 524.372,47.795 533.817,46.41 542.295,42.994 547.846,39.955 552.752,36.647 557.393,33.925 562.779,32.059 
		568.543,32.059 574.409,33.925 578.677,37.926 581.77,43.474 583.371,49.823 583.799,56.437 581.985,49.343 579.318,43.313 
		575.744,38.991 572.223,36.964 568.063,36.964 564.221,38.085 561.714,39.74 555.686,43.474 549.229,46.41 543.044,48.275 
		537.816,49.343 531.947,50.087 523.307,50.249 514.773,49.022 514.773,47.154 	"/>
	<polygon fill-rule="evenodd" clip-rule="evenodd" points="516,666.003 332.759,748.956 314.035,753.704 208.306,797.71 
		189.636,789.55 438.541,677.898 	"/>
	<polyline fill="none" points="516,666.003 332.759,748.956 314.035,753.704 208.306,797.71 189.636,789.55 438.541,677.898 
		516,666.003 	"/>
	<polygon fill-rule="evenodd" clip-rule="evenodd" points="330.303,755.411 309.287,760.369 208.306,803.58 195.931,800.539 
		196.088,801.924 195.931,803.259 195.451,803.741 194.971,804.058 193.796,804.221 192.516,804.058 170.004,793.553 
		170.004,792.483 170.484,791.578 171.659,791.097 172.935,790.936 195.931,800.539 208.306,803.58 175.552,787.684 
		163.498,789.711 168.777,804.058 141.412,815.475 138.21,811.741 134.05,813.768 136.183,817.343 118.58,824.917 118.58,836.015 
		88.493,853.618 87.426,843.855 82.146,844.815 82.947,848.336 79.8,848.336 67.477,863.326 64.223,881.089 67.477,905.201 
		114.257,897.787 117.192,898.692 117.833,899.333 117.939,900.079 117.672,900.719 117.192,900.989 114.736,903.655 
		113.94,906.748 114.736,909.84 117.192,912.296 120.605,914.165 124.768,914.644 128.928,914.165 132.449,912.296 134.797,909.84 
		135.597,906.748 134.797,903.655 132.449,900.989 128.928,899.333 128.448,898.266 128.448,897.145 129.408,896.08 
		138.795,882.371 137.252,878.477 144.079,869.354 146.694,871.541 160.937,858.843 163.173,857.937 164.458,858.579 
		165.364,859.484 165.685,859.643 166.003,860.233 166.003,860.873 165.685,861.514 165.043,861.779 162.587,864.447 
		161.841,867.54 162.587,870.581 165.043,873.194 168.457,874.954 172.619,875.542 176.833,874.954 180.352,873.194 
		182.647,870.581 183.446,867.54 182.647,864.447 180.194,861.779 178.965,861.514 178.165,860.603 177.9,859.164 186.061,829.025 
		191.607,832.438 190.968,836.652 191.45,837.987 192.516,838.946 193.637,839.267 200.41,839.267 202.863,836.174 203.823,832.012 
		209.692,827.85 203.076,812.061 309.287,766.985 316.968,770.4 316.968,763.571 324.757,759.409 328.865,761.917 436.992,711.719 
		513.544,672.193 	"/>
	<polyline fill="none" stroke="#000000" stroke-width="0.3957" stroke-linecap="round" stroke-linejoin="round" points="
		330.303,755.411 309.287,760.369 208.306,803.58 195.931,800.539 196.088,801.924 195.931,803.259 195.451,803.741 
		194.971,804.058 193.796,804.221 192.516,804.058 170.004,793.553 170.004,792.483 170.484,791.578 171.659,791.097 
		172.935,790.936 195.931,800.539 208.306,803.58 175.552,787.684 163.498,789.711 168.777,804.058 141.412,815.475 138.21,811.741 
		134.05,813.768 136.183,817.343 118.58,824.917 118.58,836.015 88.493,853.618 87.426,843.855 82.146,844.815 82.947,848.336 
		79.8,848.336 67.477,863.326 64.223,881.089 67.477,905.201 114.257,897.787 117.192,898.692 117.833,899.333 117.939,900.079 
		117.672,900.719 117.192,900.989 114.736,903.655 113.94,906.748 114.736,909.84 117.192,912.296 120.605,914.165 124.768,914.644 
		128.928,914.165 132.449,912.296 134.797,909.84 135.597,906.748 134.797,903.655 132.449,900.989 128.928,899.333 
		128.448,898.266 128.448,897.145 129.408,896.08 138.795,882.371 137.252,878.477 144.079,869.354 146.694,871.541 
		160.937,858.843 163.173,857.937 164.458,858.579 165.364,859.484 165.685,859.643 166.003,860.233 166.003,860.873 
		165.685,861.514 165.043,861.779 162.587,864.447 161.841,867.54 162.587,870.581 165.043,873.194 168.457,874.954 
		172.619,875.542 176.833,874.954 180.352,873.194 182.647,870.581 183.446,867.54 182.647,864.447 180.194,861.779 
		178.965,861.514 178.165,860.603 177.9,859.164 186.061,829.025 191.607,832.438 190.968,836.652 191.45,837.987 192.516,838.946 
		193.637,839.267 200.41,839.267 202.863,836.174 203.823,832.012 209.692,827.85 203.076,812.061 309.287,766.985 316.968,770.4 
		316.968,763.571 324.757,759.409 328.865,761.917 436.992,711.719 513.544,672.193 330.303,755.411 	"/>
	<polygon fill-rule="evenodd" clip-rule="evenodd" points="647.224,264.266 647.438,265.491 648.024,266.081 655.119,268.426 
		660.401,270.559 665.361,272.907 665.627,274.457 662.213,272.75 660.563,272.586 659.441,273.387 656.08,280.911 656.08,282.456 
		656.669,283.255 660.563,285.39 661.31,285.39 662.854,284.324 665.951,277.388 666.432,275.522 665.627,274.457 665.361,272.907 
		670.109,276.002 673.951,279.521 678.006,284.219 677.259,284.804 676.458,283.735 673.844,281.976 672.405,281.869 
		671.336,282.938 668.563,287.576 668.402,288.644 668.563,289.393 669.203,290.083 671.816,291.738 673.202,291.9 674.271,291.151 
		677.046,286.352 677.259,284.804 678.006,284.219 679.981,286.457 681.047,287.576 681.848,288.058 682.433,287.738 683.07,285.71 
		683.395,283.418 683.554,281.068 683.395,278.776 682.805,276.163 681.047,273.495 667.335,262.398 664.562,261.333 
		661.31,260.691 658.215,260.427 655.012,260.691 651.922,261.333 648.663,262.398 647.703,263.145 647.224,264.266 
		623.005,253.331 623.489,250.183 625.196,247.888 627.221,246.341 629.78,245.222 634.153,244.634 638.477,244.955 
		645.892,246.502 656.508,250.183 666.748,254.504 675.389,259.626 683.395,265.652 689.419,271.201 694.328,276.589 
		698.385,282.777 701.477,289.604 703.61,296.378 703.931,298.834 703.771,301.5 703.289,303.313 702.224,305.02 698.063,305.501 
		692.195,305.661 684.299,304.38 674.909,301.606 666.106,298.085 656.4,292.806 647.598,286.352 644.025,283.418 640.933,280.642 
		637.997,277.708 635.063,274.293 632.61,271.68 629.675,267.946 627.221,264.746 625.513,261.492 623.913,257.599 623.005,253.331 
			"/>
	<polygon fill-rule="evenodd" clip-rule="evenodd" points="675.498,305.766 663.92,301.288 653.467,295.418 643.705,288.484 
		635.063,280.321 627.488,270.88 629.993,285.87 648.663,297.02 649.253,303.154 654.214,307.527 647.918,337.56 643.705,363.22 
		640.607,465.321 633.088,462.172 636.93,359.54 639.063,343.642 643.438,323.211 649.253,303.154 648.663,297.02 642.745,311.635 
		638.315,326.946 635.544,342.734 634.263,357.67 618.848,341.456 621.299,317.398 629.993,285.87 627.488,270.88 622.74,293.606 
		615.645,319.424 609.564,353.938 620.126,358.311 623.806,367.593 623.806,421.311 614.523,428.728 618.26,432.406 631.22,422.486 
		631.22,442.917 618.26,439.181 618.26,443.558 620.393,444.729 622.368,446.492 624.392,448.626 626.262,450.759 626.847,452.04 
		628.715,455.081 629.194,457.905 630.154,461.107 629.993,463.562 629.354,465.589 628.395,467.296 626.578,468.416 
		625.513,469.322 623.164,469.109 620.872,468.416 619.166,466.655 616.394,465 614.954,462.973 613.297,459.721 611.911,457.424 
		611.166,454.491 610.844,451.078 610.844,448.732 611.59,446.492 612.816,445.05 614.523,444.144 616.23,443.664 618.26,443.558 
		618.26,439.181 618.26,432.406 614.523,428.728 609.564,425.631 605.402,480.737 596.813,484.152 596.813,483.513 596.601,483.244 
		596.12,482.872 595.535,482.872 583.799,473.004 579.318,473.004 580.438,479.351 583.158,485.219 587.159,490.178 
		592.333,493.861 594.146,494.766 598.628,494.766 602.949,493.114 606.362,490.178 607.908,487.833 612.979,491.833 
		619.006,494.34 625.513,495.408 631.808,494.766 638.156,493.966 644.025,491.726 649.094,487.992 653.146,483.033 655.6,477.324 
		655.92,476.417 659.336,463.935 661.147,450.97 661.31,437.954 660.563,428.566 659.921,424.352 658.694,406.59 659.015,388.663 
		660.668,371.274 663.604,353.351 668.724,335.586 672.298,327.533 675.714,320.011 679.712,313.663 684.46,307.795 	"/>
	<polygon fill-rule="evenodd" clip-rule="evenodd" points="608.338,346.417 607.753,342.043 606.044,338.04 603.27,335.322 
		600.016,333.772 596.601,333.772 593.398,335.322 590.731,338.255 589.024,342.043 588.439,346.522 589.024,350.899 
		590.731,354.898 589.666,356.125 589.024,358.311 589.666,360.446 591.211,361.994 593.398,362.633 595.535,361.994 
		597.08,360.446 597.4,359.219 600.177,359.219 603.429,357.67 606.044,354.739 607.753,350.899 608.338,346.417 609.564,353.938 
		613.885,375.008 610.844,381.144 610.204,376.663 608.338,372.767 605.402,369.834 601.989,368.287 598.307,368.287 
		594.947,369.834 592.121,372.767 590.31,376.663 589.666,381.144 590.31,385.625 592.121,389.464 594.947,392.451 598.471,393.947 
		601.989,393.947 605.562,392.451 608.338,389.464 610.204,385.465 610.844,381.144 613.885,375.008 612.711,413.897 
		609.564,425.631 607.111,423.444 608.978,419.604 609.564,415.124 608.978,410.643 607.111,406.801 604.337,403.868 
		601.081,402.323 597.561,402.323 594.146,403.868 591.375,406.801 590.31,404.774 591.642,403.388 592.121,401.522 
		591.642,399.654 590.31,398.32 588.439,397.84 586.571,398.32 585.186,399.654 584.705,401.522 585.186,403.388 586.571,404.774 
		588.439,405.254 590.31,404.774 591.375,406.801 589.666,410.804 589.024,415.124 589.666,419.604 591.532,423.444 
		594.146,426.379 597.561,427.927 601.081,427.927 604.494,426.379 607.111,423.444 609.564,425.631 605.402,480.737 
		604.817,476.096 602.631,471.934 599.056,468.841 594.788,467.135 590.146,466.976 589.825,466.976 586.571,468.416 
		584.44,470.975 583.799,473.004 583.636,473.004 579.637,468.042 577.024,462.172 575.744,455.879 559.846,451.398 
		563.259,396.719 574.679,396.719 574.679,385.306 577.931,384.879 576.064,386.692 575.475,389.147 576.064,391.65 
		577.931,393.521 580.438,394.106 582.891,393.521 584.6,391.65 585.345,389.147 584.6,386.692 582.891,384.879 580.438,384.238 
		577.931,384.879 574.679,385.306 567.742,385.306 569.022,363.539 582.254,364.18 581.612,366.315 582.254,368.501 
		583.799,370.049 585.986,370.634 588.119,370.049 589.666,368.501 590.31,366.315 589.666,364.18 588.119,362.419 585.986,361.994 
		583.799,362.419 582.254,364.18 569.022,363.539 564.326,363.539 562.032,330.521 567.742,330.521 567.742,319.051 
		573.501,319.051 590.31,317.664 590.731,321.667 592.602,325.08 595.215,327.533 598.471,328.493 601.884,327.906 604.817,325.88 
		606.843,322.624 607.753,317.984 615.645,319.424 609.564,353.938 	"/>
	<polyline fill="none" stroke="#000000" stroke-width="0.3957" stroke-linecap="round" stroke-linejoin="round" points="
		608.338,346.417 607.753,342.043 606.044,338.04 603.27,335.322 600.016,333.772 596.601,333.772 593.398,335.322 590.731,338.255 
		589.024,342.043 588.439,346.522 589.024,350.899 590.731,354.898 589.666,356.125 589.024,358.311 589.666,360.446 
		591.211,361.994 593.398,362.633 595.535,361.994 597.08,360.446 597.4,359.219 600.177,359.219 603.429,357.67 606.044,354.739 
		607.753,350.899 608.338,346.417 609.564,353.938 613.885,375.008 610.844,381.144 610.204,376.663 608.338,372.767 
		605.402,369.834 601.989,368.287 598.307,368.287 594.947,369.834 592.121,372.767 590.31,376.663 589.666,381.144 590.31,385.625 
		592.121,389.464 594.947,392.451 598.471,393.947 601.989,393.947 605.562,392.451 608.338,389.464 610.204,385.465 
		610.844,381.144 613.885,375.008 612.711,413.897 609.564,425.631 607.111,423.444 608.978,419.604 609.564,415.124 
		608.978,410.643 607.111,406.801 604.337,403.868 601.081,402.323 597.561,402.323 594.146,403.868 591.375,406.801 
		590.31,404.774 591.642,403.388 592.121,401.522 591.642,399.654 590.31,398.32 588.439,397.84 586.571,398.32 585.186,399.654 
		584.705,401.522 585.186,403.388 586.571,404.774 588.439,405.254 590.31,404.774 591.375,406.801 589.666,410.804 
		589.024,415.124 589.666,419.604 591.532,423.444 594.146,426.379 597.561,427.927 601.081,427.927 604.494,426.379 
		607.111,423.444 609.564,425.631 605.402,480.737 604.817,476.096 602.631,471.934 599.056,468.841 594.788,467.135 
		590.146,466.976 589.825,466.976 586.571,468.416 584.44,470.975 583.799,473.004 583.636,473.004 579.637,468.042 
		577.024,462.172 575.744,455.879 559.846,451.398 563.259,396.719 574.679,396.719 574.679,385.306 577.931,384.879 
		576.064,386.692 575.475,389.147 576.064,391.65 577.931,393.521 580.438,394.106 582.891,393.521 584.6,391.65 585.345,389.147 
		584.6,386.692 582.891,384.879 580.438,384.238 577.931,384.879 574.679,385.306 567.742,385.306 569.022,363.539 582.254,364.18 
		581.612,366.315 582.254,368.501 583.799,370.049 585.986,370.634 588.119,370.049 589.666,368.501 590.31,366.315 589.666,364.18 
		588.119,362.419 585.986,361.994 583.799,362.419 582.254,364.18 569.022,363.539 564.326,363.539 562.032,330.521 
		567.742,330.521 567.742,319.051 573.501,319.051 590.31,317.664 590.731,321.667 592.602,325.08 595.215,327.533 598.471,328.493 
		601.884,327.906 604.817,325.88 606.843,322.624 607.753,317.984 615.645,319.424 609.564,353.938 608.338,346.417 	"/>
	<polyline fill-rule="evenodd" clip-rule="evenodd" points="589.505,212.522 589.984,208.682 591.375,205.267 593.667,202.973 
		596.439,202.013 598.948,202.654 598.628,201.427 599.428,198.92 601.294,197.05 604.015,196.359 601.404,195.718 599.536,193.852 
		599.056,191.982 596.334,191.876 593.24,190.329 590.895,187.397 575.639,188.304 573.501,319.051 590.31,317.664 591.055,313.663 
		593.081,310.462 595.854,308.276 599.056,307.527 602.363,308.437 605.082,310.57 606.948,313.983 607.753,317.984 
		615.645,319.424 604.176,298.085 601.294,300.113 597.881,300.7 594.575,299.74 592.016,297.285 590.146,293.872 589.666,289.873 
		590.465,285.87 592.333,282.669 595.215,280.321 598.471,279.736 601.723,280.483 604.494,282.777 606.362,286.19 607.111,290.193 
		606.948,290.938 606.201,294.833 604.176,298.085 615.645,319.424 615.75,252.53 607.111,257.119 608.978,260.691 609.564,264.905 
		609.298,267.466 607.908,271.36 605.402,274.136 602.363,275.681 598.948,275.842 595.694,274.293 593.24,271.36 591.853,267.625 
		591.532,263.465 592.602,259.465 594.788,256.213 597.722,254.183 601.081,253.757 604.337,254.663 607.111,257.119 615.75,252.53 
		621.299,246.821 620.231,225.056 608.338,239.248 606.948,242.768 604.337,245.435 601.081,246.821 597.561,246.662 
		594.468,244.955 592.121,241.862 591.055,238.18 591.375,234.287 593.24,230.871 596.015,228.579 599.428,227.671 602.949,228.153 
		602.949,216.736 602.202,218.391 600.016,220.842 597.241,221.91 594.468,221.483 592.016,219.456 	"/>
	<path fill-rule="evenodd" clip-rule="evenodd" d="M590.574,54.728c-11.009,2.776-13.523,0.923-13.642,11.997
		c-0.161,15.12-0.322,30.239-0.482,45.359c-0.271,25.407-0.541,50.813-0.812,76.22c5.085-0.302,10.171-0.604,15.256-0.906
		c-3.316-7.539,1.893-15.184,10.029-13.765c6.556,1.143,10.989,9.972,15.47,14.351c0.169-3.741-3.038-5.427-5.611-7.945
		c-2.936-2.873-1.964-6.025-1.964-10.083c8.241,5.685,7.575,6.893,7.575,16.802c0,5.627-2.156,15.375,1.386,19.739
		c1.44-13.834,2.88-27.668,4.32-41.502c-3.994,1.126-0.995,10.266-5.132,7.384c-7.466-5.203-8.149-5.178-8.149-14.213
		c3.409,2.385,9.019,8.771,13.281,6.829c-4.275-3.091-8.551-6.183-12.826-9.273c-0.863-0.625-10.599-6.288-7.232-1.235
		c6.2,9.306-9.283,14.214-7.895,3.359c0.808-6.315,5.8-2.862,7.147-4.481c2.832-3.401,0.649-10.458,0.324-14.777
		c-0.825-10.946-0.804-21.768-0.804-32.751c-2.69,0.91-10.184,13.133-11.842,1.226c-0.487-3.506,2.112-8.281,6.188-6.615
		c4.072,1.665,1.679,7.084,6.722,4.934c6.229-2.656,3.415,18.414,3.415,21.941c0,6.506-3.813,24.317,3.521,28.07
		c-1.174-23.774-2.348-47.548-3.521-71.323c-0.889,0.569-1.777,1.138-2.666,1.707c0-6.753,2.187-9.563,2.187-16.024
		c0-2.709,0.582-6.174,0-8.833c-0.274-1.25-3.095,1.68-3.095-1.017c0-1.636-0.396-3.896,0-5.49
		C598.007,54.517,594.29,54.623,590.574,54.728z"/>
	<line fill="none" stroke="#000000" stroke-width="4" x1="230.232" y1="310.729" x2="376.854" y2="310.229"/>
	<line fill="none" stroke="#000000" stroke-width="2.1183" x1="796.908" y1="669.685" x2="596.334" y2="841.561"/>
	<polyline fill="none" stroke="#000000" stroke-width="2" stroke-linecap="round" stroke-linejoin="round" points="514.773,40.061 
		522.665,41.021 530.508,40.22 535.309,39.155 	"/>
	<polyline fill="none" stroke="#000000" stroke-width="0.3957" stroke-linecap="round" stroke-linejoin="round" points="
		684.46,307.795 690.224,308.437 695.768,307.953 700.838,306.087 702.224,305.02 	"/>
	<path fill="none" stroke="#000000" stroke-width="4.2367" stroke-linecap="round" stroke-linejoin="round" d="M189.921,433.02
		c-37.899,23.287-24.836,82.846,21.639,82.498c47.375-0.354,57.138-59.472,19.879-82.498"/>
	
		<line fill="none" stroke="#000000" stroke-width="0.3957" stroke-linecap="round" stroke-linejoin="round" x1="192.516" y1="123.917" x2="189.793" y2="119.437"/>
	
		<line fill="none" stroke="#000000" stroke-width="0.3957" stroke-linecap="round" stroke-linejoin="round" x1="228.683" y1="119.437" x2="228.045" y2="123.917"/>
	<path fill="none" stroke="#000000" stroke-width="4.2367" stroke-linecap="round" stroke-linejoin="round" d="M120.114,704.201
		c41.553,18.174,109.077,18.907,152.758-0.239c48.298-21.169,70.668-67.793,54.744-119.523
		c-7.224-23.463-22.356-43.798-32.232-66.117c-10.014-22.632,3.366-43.118,9.5-64.79c13.573-47.969-28.357-92.176-73.904-92.793"/>
	
		<line fill="none" stroke="#000000" stroke-width="2.1183" stroke-linecap="round" stroke-linejoin="round" x1="455.61" y1="409.257" x2="456.411" y2="455.718"/>
	
		<line fill="none" stroke="#000000" stroke-width="2.1183" stroke-linecap="round" stroke-linejoin="round" x1="456.411" y1="460.04" x2="453.639" y2="504.529"/>
	
		<line fill="none" stroke="#000000" stroke-width="2.1183" stroke-linecap="round" stroke-linejoin="round" x1="466.442" y1="409.257" x2="467.399" y2="455.718"/>
	
		<line fill="none" stroke="#000000" stroke-width="2.1183" stroke-linecap="round" stroke-linejoin="round" x1="467.399" y1="460.04" x2="463.239" y2="504.529"/>
	
		<line fill="none" stroke="#000000" stroke-width="2.1183" stroke-linecap="round" stroke-linejoin="round" x1="474.654" y1="409.257" x2="475.989" y2="455.718"/>
	
		<line fill="none" stroke="#000000" stroke-width="2.1183" stroke-linecap="round" stroke-linejoin="round" x1="475.989" y1="460.04" x2="469.375" y2="504.529"/>
	
		<line fill="none" stroke="#000000" stroke-width="2.1183" stroke-linecap="round" stroke-linejoin="round" x1="482.656" y1="409.257" x2="483.885" y2="455.718"/>
	
		<line fill="none" stroke="#000000" stroke-width="2.1183" stroke-linecap="round" stroke-linejoin="round" x1="483.885" y1="460.04" x2="476.79" y2="504.529"/>
	<path fill="none" stroke="#000000" stroke-width="2.1183" stroke-linecap="round" stroke-linejoin="round" d="M449.156,583.106
		c-29.359,7.183-55.565-12.565-64.705-40.008c-5.416-16.261-3.26-31.784,2.934-47.372c3.235-8.144,9.996-13.692,3.413-22.401
		c15.869,1.012,25.061-11.97,29.047-28.167c2.403-9.769,3.221-23.263-0.296-32.967c-2.697-7.445-10.603-10.577-13.176-16.057
		c-2.902-6.182-2.35-17.139-4.238-24.887c-2.967-12.172-3.596-24.863-0.24-37.046c6.215-22.563,25.689-39.326,49.607-39.049"/>
	<path fill="none" stroke="#000000" stroke-width="2.1183" stroke-linecap="round" stroke-linejoin="round" d="M531.468,555.901
		c14.166-30.477-5.985-53.457-1.389-83.057c-29.739-2.399-40.575-79.434-8.374-78.151c-4.766-24.454,9.243-47.475-4.081-71.455
		c-7.466-13.432-22.061-26.022-37.901-27.34"/>
	<path fill="none" stroke="#000000" stroke-width="2.1183" stroke-linecap="round" stroke-linejoin="round" d="M531.943,564.797
		c10.389-15.501,14.723-34.555,10.779-52.588c-3.604-16.479-5.021-29.967-6.774-46.301c-18.707,5.43-24.256-22.893-25.019-35.795
		c-0.397-6.726,2.05-42.843,15.577-27.526c3.938-8.5,0.836-27.096,2.027-37.501c1.917-16.742,0.105-32.648-8.962-47.262
		c-8.734-14.073-23.152-25.72-40.435-25.608"/>
	
		<line fill="none" stroke="#000000" stroke-width="1.5888" stroke-linecap="round" stroke-linejoin="round" x1="615.75" y1="681.154" x2="615.75" y2="687.021"/>
	
		<line fill="none" stroke="#000000" stroke-width="1.5888" stroke-linecap="round" stroke-linejoin="round" x1="646.477" y1="683.02" x2="646.477" y2="676.671"/>
	
		<line fill="none" stroke="#000000" stroke-width="1.5888" stroke-linecap="round" stroke-linejoin="round" x1="671.495" y1="674.485" x2="671.23" y2="669.098"/>
	
		<line fill="none" stroke="#000000" stroke-width="1.5888" stroke-linecap="round" stroke-linejoin="round" x1="549.709" y1="680.033" x2="549.709" y2="685.954"/>
	
		<line fill="none" stroke="#000000" stroke-width="1.5888" stroke-linecap="round" stroke-linejoin="round" x1="582.734" y1="687.609" x2="582.734" y2="682.221"/>
	<polyline fill="none" stroke="#000000" stroke-linecap="round" stroke-linejoin="round" points="599.536,382.372 598.948,380.182 
		597.4,378.69 595.215,378.049 593.081,378.69 591.532,380.182 590.895,382.372 591.532,384.559 593.081,386.104 595.215,386.692 
		597.4,386.104 598.948,384.559 599.536,382.372 599.536,382.372 	"/>
	
		<line fill="none" stroke="#000000" stroke-width="2.1183" stroke-linecap="round" stroke-linejoin="round" x1="559.846" y1="449.533" x2="518.825" y2="458.494"/>
	<line fill="none" stroke="#000000" stroke-width="2.1183" x1="659.015" y1="387.012" x2="796.908" y2="368.287"/>
	<line fill="none" stroke="#000000" stroke-width="2.1183" x1="93.082" y1="399.067" x2="7.092" y2="405.842"/>
	<line fill="none" stroke="#000000" stroke-width="2.1183" x1="7.092" y1="365.246" x2="190.223" y2="356.445"/>
	<line fill="none" stroke="#000000" stroke-width="2.1183" x1="190.542" y1="333.452" x2="7.092" y2="337.134"/>
	<line fill="none" stroke="#000000" stroke-width="2.1183" x1="796.908" y1="399.654" x2="660.242" y2="428.833"/>
	<line fill="none" stroke="#000000" stroke-width="2.1183" x1="230.869" y1="355.057" x2="359.91" y2="349.778"/>
	<line fill="none" stroke="#000000" stroke-width="2.1183" x1="364.639" y1="329.7" x2="230.548" y2="332.814"/>
	<line fill="none" stroke="#000000" stroke-width="2.1183" x1="350.202" y1="841.561" x2="511.887" y2="742.127"/>
	<line fill="none" stroke="#000000" stroke-width="2.1183" x1="796.908" y1="496.473" x2="593.878" y2="585.133"/>
	<line fill="none" stroke="#000000" stroke-width="2.1183" x1="544.432" y1="528.267" x2="796.908" y2="448.037"/>
	<line fill="none" stroke="#000000" stroke-width="2.1183" x1="796.908" y1="399.654" x2="660.563" y2="428.353"/>
	
		<line fill="none" stroke="#000000" stroke-width="2.1183" stroke-linecap="round" stroke-linejoin="round" x1="528.213" y1="342.256" x2="562.193" y2="340.496"/>
	
		<line fill="none" stroke="#000000" stroke-width="2.1183" stroke-linecap="round" stroke-linejoin="round" x1="567.742" y1="325.56" x2="524.957" y2="326.625"/>
	<line fill="none" stroke="#000000" stroke-width="2.1183" x1="704.358" y1="623.703" x2="796.908" y2="566.731"/>
	<line fill="none" stroke="#000000" stroke-width="2.1183" x1="430.006" y1="656.616" x2="7.092" y2="841.561"/>
	<line fill="none" stroke="#000000" stroke-width="2.1183" x1="7.092" y1="697.848" x2="74.571" y2="676.353"/>
	<line fill="none" stroke="#000000" stroke-width="2.1183" x1="72.705" y1="551.58" x2="7.092" y2="566.731"/>
	<line fill="none" stroke="#000000" stroke-width="2.1183" x1="7.092" y1="473.004" x2="89.399" y2="461.908"/>
	<line fill="none" stroke="#000000" stroke-width="2.1183" x1="796.908" y1="343.483" x2="663.225" y2="353.938"/>
	<line fill="none" stroke="#000000" stroke-width="2.1183" x1="668.345" y1="335.322" x2="796.908" y2="329.399"/>
	<line fill="none" stroke="#000000" stroke-width="2.1183" x1="796.908" y1="321.557" x2="674.112" y2="323.689"/>
	<line fill="none" stroke="#000000" stroke-width="2.1183" x1="330.731" y1="595.163" x2="390.017" y2="578.305"/>
	<line fill="none" stroke="#000000" stroke-width="2.1183" x1="346.629" y1="494.446" x2="291.523" y2="506.341"/>
	<line fill="none" stroke="#000000" stroke-width="2.1183" x1="305.874" y1="433.047" x2="380.313" y2="423.179"/>
	
		<line fill="none" stroke="#000000" stroke-width="2.1183" stroke-linecap="round" stroke-linejoin="round" x1="513.224" y1="406.481" x2="563.259" y2="399.867"/>
	
		<line fill="none" stroke="#000000" stroke-width="2.1183" stroke-linecap="round" stroke-linejoin="round" x1="564.326" y1="361.567" x2="528.853" y2="364.286"/>
	<line fill="none" stroke="#000000" stroke-width="2.1183" x1="361.78" y1="377.889" x2="286.244" y2="383.117"/>
	<polyline fill="none" stroke="#000000" stroke-width="4" points="109.031,841.561 7.092,841.561 7.092,310.57 190.703,310.57 	"/>
	<line fill="none" stroke="#000000" stroke-width="4" x1="682.325" y1="310.462" x2="796.908" y2="310.57"/>
	<polyline fill="none" stroke="#000000" stroke-width="4" points="796.908,310.57 796.908,841.561 182.807,841.561 	"/>
	<line fill="none" stroke="#000000" stroke-width="4" x1="514.273" y1="310.57" x2="573.609" y2="310.57"/>
	<polyline fill="none" stroke="#000000" stroke-linecap="round" stroke-linejoin="round" points="597.4,359.219 597.722,358.311 
		597.08,356.125 595.535,354.418 593.398,353.938 591.211,354.418 590.731,354.898 	"/>
</g>
<polyline fill="none" stroke="#FFFFFF" stroke-width="6" points="190.062,98.042 182.807,23.042 218.549,20.042 "/>
<path fill="none" stroke="#000000" stroke-width="2.1183" stroke-linecap="round" stroke-linejoin="round" d="M405.708,581.836
	c0,0,12.596,11.934,47.61,6.069"/>
<polygon fill-rule="evenodd" clip-rule="evenodd" points="600.5,608.542 623,616.042 622,620.542 600,612.542 "/>
<g>
	<line fill-rule="evenodd" clip-rule="evenodd" stroke="#000000" stroke-width="2" x1="620" y1="600.042" x2="475" y2="662.542"/>
	<line fill="#FFFFFF" stroke="#000000" stroke-width="2" x1="623.25" y1="602.292" x2="478.25" y2="664.792"/>
	<line fill="#FFFFFF" stroke="#000000" stroke-width="2" x1="626.5" y1="605.542" x2="481.5" y2="668.042"/>
	<line fill="#FFFFFF" stroke="#000000" stroke-width="2" x1="629.75" y1="608.792" x2="484.75" y2="671.292"/>
	<line fill="#FFFFFF" stroke="#000000" stroke-width="2" x1="637.5" y1="609.042" x2="488" y2="674.542"/>
</g>
<path fill-rule="evenodd" clip-rule="evenodd" stroke="#000000" d="M875,482.042"/>
<g>
	<line fill="#FFFFFF" stroke="#000000" x1="231.938" y1="450.598" x2="232" y2="612.042"/>
	<line fill="#FFFFFF" stroke="#000000" x1="223.938" y1="450.598" x2="224" y2="612.042"/>
	<line fill="#FFFFFF" stroke="#000000" stroke-width="2" x1="215.938" y1="450.598" x2="216" y2="612.042"/>
	<line fill="#FFFFFF" stroke="#000000" stroke-width="2" x1="207.938" y1="450.598" x2="208" y2="612.042"/>
	<line fill="#FFFFFF" stroke="#000000" stroke-width="3" x1="199.938" y1="450.598" x2="200" y2="612.042"/>
	<line fill="#FFFFFF" stroke="#000000" stroke-width="3" x1="191.938" y1="450.598" x2="192" y2="612.042"/>
</g>
<path fill="none" stroke="#000000" stroke-width="2" stroke-linecap="round" stroke-linejoin="round" d="M600.833,227.042
	c0,0,11.001,1.5,7.834,13.5"/>
<path fill="none" stroke="#000000" d="M623.989,250.183c0,0-4.49,11.692,4.344,22.525"/>
<ellipse fill="none" stroke="#000000" cx="607.667" cy="183.625" rx="5.167" ry="5.083"/>
<ellipse fill="#FFFFFF" stroke="#000000" cx="607.667" cy="194.292" rx="5.167" ry="5.083"/>
<ellipse fill="#FFFFFF" stroke="#000000" cx="607.667" cy="204.958" rx="5.167" ry="5.083"/>
<ellipse fill="#FFFFFF" stroke="#000000" cx="607.667" cy="215.625" rx="5.167" ry="5.083"/>
<ellipse fill="#FFFFFF" stroke="#000000" stroke-width="0.7705" cx="609" cy="225.292" rx="3.981" ry="3.917"/>
<path fill="none" stroke="#000000" d="M597.167,201.375c0,0,6.332,3,6.666,10.5"/>
<path fill="none" stroke="#000000" d="M597.833,192.208c0,0,4.167,2,8.334-3.667"/>
</svg>
